<svg fill="#fff" height="32px" width="32px" version="1.1" id="Capa_1" xmlns="http://www.w3.org/2000/svg" xmlns:xlink="http://www.w3.org/1999/xlink" viewBox="0 0 1.067 1.067" xml:space="preserve"><g><path d="M1.044 0.876a0.023 0.023 0 0 1 -0.021 -0.014c-0.003 -0.006 -0.069 -0.154 -0.315 -0.184 -0.051 -0.006 -0.113 -0.009 -0.188 -0.01v0.185a0.023 0.023 0 0 1 -0.012 0.02 0.023 0.023 0 0 1 -0.024 -0.001L0.01 0.553a0.023 0.023 0 0 1 0 -0.038l0.474 -0.319a0.022 0.022 0 0 1 0.024 -0.001c0.008 0.004 0.012 0.012 0.012 0.02v0.172c0.103 0.013 0.547 0.093 0.547 0.467a0.023 0.023 0 0 1 -0.018 0.022q-0.002 0 -0.004 0"/><g/><g/><g/><g/><g/><g/><g/><g/><g/><g/><g/><g/><g/><g/><g/></g></svg>