<svg width="32" height="32" viewBox="0 0 32 32" fill="none" xmlns="http://www.w3.org/2000/svg"><path d="M31.964 17.078Q32 16.543 32 16C32 7.163 24.837 0 16 0S0 7.163 0 16q0 0.547 0.036 1.086l15.968 -13.399 0.001 0.001 0.001 -0.001z" fill="#FFF"/><path d="m30.559 22.646 -14.554 -12.212 -14.561 12.218a16.04 16.04 0 0 0 3.612 5.02l10.926 -9.168 0.001 0.001 0.001 -0.001 10.944 9.183a16.04 16.04 0 0 0 3.631 -5.041" fill="#FFF"/><path d="m22.425 30.657 -6.443 -5.406 -6.431 5.396C11.525 31.517 13.706 32 16 32c2.285 0 4.459 -0.479 6.425 -1.343" fill="#FFF"/></svg>