<svg width="32" height="32" viewBox="0 0 32 32" fill="none" xmlns="http://www.w3.org/2000/svg"><path d="m3.067 25.421 9.228 -9.228 -9.389 -9.389C1.075 9.405 0 12.577 0 16c0 3.522 1.138 6.778 3.067 9.421" fill="#FFF"/><path d="M6.745 29.053C9.358 30.909 12.551 32 16 32c3.423 0 6.595 -1.075 9.196 -2.905l-9.246 -9.246z" fill="#FFF"/><path d="M28.891 25.479C30.845 22.826 32 19.548 32 16c0 -3.449 -1.091 -6.642 -2.947 -9.255l-9.448 9.448z" fill="#FFF"/><path d="m25.421 3.067 -9.471 9.471 -9.429 -9.429C9.174 1.155 12.452 0 16 0c3.522 0 6.778 1.138 9.421 3.067" fill="#FFF"/></svg>