<svg fill="#fff" width="32px" height="32px" viewBox="0 0 1.28 1.28" id="icon" xmlns="http://www.w3.org/2000/svg"><defs><style>.cls-1 {
        fill: none;
      }</style></defs><path points="30 11.414 28.586 10 24 14.586 19.414 10 18 11.414 22.586 16 18 20.585 19.415 22 24 17.414 28.587 22 30 20.587 25.414 16 30 11.414" d="M1.2 0.457L1.143 0.4L0.96 0.583L0.777 0.4L0.72 0.457L0.903 0.64L0.72 0.823L0.777 0.88L0.96 0.697L1.143 0.88L1.2 0.823L1.017 0.64L1.2 0.457Z"/><path d="M0.16 0.16a0.08 0.08 0 0 0 -0.08 0.08v0.127a0.08 0.08 0 0 0 0.023 0.057L0.4 0.72v0.32a0.08 0.08 0 0 0 0.08 0.08h0.16a0.08 0.08 0 0 0 0.08 -0.08v-0.08h-0.08v0.08h-0.16v-0.353l-0.023 -0.023L0.16 0.367V0.24h0.8v0.08h0.08V0.24a0.08 0.08 0 0 0 -0.08 -0.08Z"/><path id="_Transparent_Rectangle_" data-name="&amp;lt;Transparent Rectangle&amp;gt;" class="cls-1" width="32" height="32" d="M0 0H1.28V1.28H0V0z"/></svg>