<svg fill="#fff" width="32px" height="32px" viewBox="0 0 1.28 1.28" id="icon" xmlns="http://www.w3.org/2000/svg"><defs><style>.cls-1{fill:none;}</style></defs><title>filter</title><path d="M0.72 1.12h-0.16a0.08 0.08 0 0 1 -0.08 -0.08v-0.304L0.184 0.44A0.08 0.08 0 0 1 0.16 0.384V0.24a0.08 0.08 0 0 1 0.08 -0.08h0.8a0.08 0.08 0 0 1 0.08 0.08v0.144a0.08 0.08 0 0 1 -0.024 0.056L0.8 0.736V1.04a0.08 0.08 0 0 1 -0.08 0.08M0.24 0.24v0.144l0.32 0.32V1.04h0.16v-0.336l0.32 -0.32V0.24Z"/><path id="_Transparent_Rectangle_" data-name="&amp;lt;Transparent Rectangle&amp;gt;" class="cls-1" width="32" height="32" d="M0 0H1.28V1.28H0V0z"/></svg>